<mxfile host="app.diagrams.net" modified="2020-09-06T22:42:11.401Z" agent="5.0 (Windows NT 10.0; Win64; x64) AppleWebKit/537.36 (KHTML, like Gecko) Chrome/85.0.4183.83 Safari/537.36" etag="4fyDORohcCxnVPIBjc01" version="13.6.6" type="github">
  <diagram id="kgpKYQtTHZ0yAKxKKP6v" name="Page-1">
    <mxGraphModel dx="630" dy="1334" grid="1" gridSize="10" guides="1" tooltips="1" connect="1" arrows="1" fold="1" page="1" pageScale="1" pageWidth="700" pageHeight="1000" math="0" shadow="0">
      <root>
        <mxCell id="0" />
        <mxCell id="1" parent="0" />
        <mxCell id="VPjmuC6ASAb90eTFfgxc-6" value="" style="endArrow=classic;html=1;fontSize=8;entryX=0;entryY=0.5;entryDx=0;entryDy=0;exitX=1;exitY=0.5;exitDx=0;exitDy=0;" edge="1" parent="1" source="VPjmuC6ASAb90eTFfgxc-20" target="VPjmuC6ASAb90eTFfgxc-22">
          <mxGeometry width="50" height="50" relative="1" as="geometry">
            <mxPoint x="100" y="-15" as="sourcePoint" />
            <mxPoint x="130" y="-12.5" as="targetPoint" />
            <Array as="points" />
          </mxGeometry>
        </mxCell>
        <mxCell id="VPjmuC6ASAb90eTFfgxc-10" value="CLIENTE" style="rounded=0;whiteSpace=wrap;html=1;fontSize=5;align=center;" vertex="1" parent="1">
          <mxGeometry x="1" y="-40" width="30" height="160" as="geometry" />
        </mxCell>
        <mxCell id="VPjmuC6ASAb90eTFfgxc-11" value="FUNCIONARIO" style="rounded=0;whiteSpace=wrap;html=1;fontSize=4;fontStyle=1;" vertex="1" parent="1">
          <mxGeometry x="1" y="120" width="30" height="70" as="geometry" />
        </mxCell>
        <mxCell id="VPjmuC6ASAb90eTFfgxc-12" value="Efetua Login" style="rounded=1;whiteSpace=wrap;html=1;fontSize=8;" vertex="1" parent="1">
          <mxGeometry x="250" y="-27.5" width="70" height="35" as="geometry" />
        </mxCell>
        <mxCell id="VPjmuC6ASAb90eTFfgxc-15" value="Seleciona Plano de aluguel" style="rounded=1;whiteSpace=wrap;html=1;fontSize=8;" vertex="1" parent="1">
          <mxGeometry x="250" y="70" width="70" height="40" as="geometry" />
        </mxCell>
        <mxCell id="VPjmuC6ASAb90eTFfgxc-16" value="" style="endArrow=classic;html=1;fontSize=9;entryX=0.5;entryY=0;entryDx=0;entryDy=0;exitX=0.5;exitY=1;exitDx=0;exitDy=0;" edge="1" parent="1" source="VPjmuC6ASAb90eTFfgxc-12" target="VPjmuC6ASAb90eTFfgxc-15">
          <mxGeometry width="50" height="50" relative="1" as="geometry">
            <mxPoint x="90" y="90" as="sourcePoint" />
            <mxPoint x="140" y="40" as="targetPoint" />
          </mxGeometry>
        </mxCell>
        <mxCell id="VPjmuC6ASAb90eTFfgxc-21" value="Text" style="edgeLabel;html=1;align=center;verticalAlign=middle;resizable=0;points=[];fontSize=6;" vertex="1" connectable="0" parent="VPjmuC6ASAb90eTFfgxc-16">
          <mxGeometry x="0.7249" y="2" relative="1" as="geometry">
            <mxPoint as="offset" />
          </mxGeometry>
        </mxCell>
        <mxCell id="VPjmuC6ASAb90eTFfgxc-17" value="Seleciona tipo de veículo" style="rounded=1;whiteSpace=wrap;html=1;fontSize=8;" vertex="1" parent="1">
          <mxGeometry x="145" y="70" width="70" height="40" as="geometry" />
        </mxCell>
        <mxCell id="VPjmuC6ASAb90eTFfgxc-18" value="" style="endArrow=classic;html=1;fontSize=9;entryX=1;entryY=0.5;entryDx=0;entryDy=0;exitX=0;exitY=0.5;exitDx=0;exitDy=0;" edge="1" parent="1" source="VPjmuC6ASAb90eTFfgxc-15" target="VPjmuC6ASAb90eTFfgxc-17">
          <mxGeometry width="50" height="50" relative="1" as="geometry">
            <mxPoint x="90" y="90" as="sourcePoint" />
            <mxPoint x="140" y="40" as="targetPoint" />
          </mxGeometry>
        </mxCell>
        <mxCell id="VPjmuC6ASAb90eTFfgxc-20" value="Cliente cadastra dados nos APP" style="rounded=1;whiteSpace=wrap;html=1;fontSize=8;" vertex="1" parent="1">
          <mxGeometry x="50" y="-27.5" width="70" height="35" as="geometry" />
        </mxCell>
        <mxCell id="VPjmuC6ASAb90eTFfgxc-31" style="edgeStyle=orthogonalEdgeStyle;rounded=0;orthogonalLoop=1;jettySize=auto;html=1;exitX=1;exitY=0.5;exitDx=0;exitDy=0;entryX=0;entryY=0.5;entryDx=0;entryDy=0;fontSize=6;" edge="1" parent="1" source="VPjmuC6ASAb90eTFfgxc-22" target="VPjmuC6ASAb90eTFfgxc-12">
          <mxGeometry relative="1" as="geometry">
            <Array as="points">
              <mxPoint x="220" y="-10" />
            </Array>
          </mxGeometry>
        </mxCell>
        <mxCell id="VPjmuC6ASAb90eTFfgxc-22" value="Recebeu dados para login?" style="rhombus;whiteSpace=wrap;html=1;fontSize=5;align=center;fontStyle=1" vertex="1" parent="1">
          <mxGeometry x="170" y="-33.75" width="60" height="47.5" as="geometry" />
        </mxCell>
        <mxCell id="VPjmuC6ASAb90eTFfgxc-24" value="" style="endArrow=classic;html=1;fontSize=6;exitX=0.5;exitY=1;exitDx=0;exitDy=0;entryX=1.046;entryY=0.517;entryDx=0;entryDy=0;entryPerimeter=0;" edge="1" parent="1" source="VPjmuC6ASAb90eTFfgxc-22" target="VPjmuC6ASAb90eTFfgxc-26">
          <mxGeometry width="50" height="50" relative="1" as="geometry">
            <mxPoint x="240" y="40" as="sourcePoint" />
            <mxPoint x="170" y="40" as="targetPoint" />
            <Array as="points">
              <mxPoint x="200" y="38" />
            </Array>
          </mxGeometry>
        </mxCell>
        <mxCell id="VPjmuC6ASAb90eTFfgxc-25" value="Text" style="edgeLabel;html=1;align=center;verticalAlign=middle;resizable=0;points=[];fontSize=6;" vertex="1" connectable="0" parent="VPjmuC6ASAb90eTFfgxc-24">
          <mxGeometry x="0.8571" y="3" relative="1" as="geometry">
            <mxPoint x="-10.33" y="-1.09" as="offset" />
          </mxGeometry>
        </mxCell>
        <mxCell id="VPjmuC6ASAb90eTFfgxc-26" value="Aciona suporte" style="rounded=1;whiteSpace=wrap;html=1;fontSize=8;" vertex="1" parent="1">
          <mxGeometry x="50" y="20" width="70" height="35" as="geometry" />
        </mxCell>
        <mxCell id="VPjmuC6ASAb90eTFfgxc-29" value="Não" style="text;html=1;strokeColor=none;fillColor=none;align=center;verticalAlign=middle;whiteSpace=wrap;rounded=0;fontSize=6;" vertex="1" parent="1">
          <mxGeometry x="145" y="20" width="40" height="20" as="geometry" />
        </mxCell>
        <mxCell id="VPjmuC6ASAb90eTFfgxc-32" value="Sim" style="text;html=1;strokeColor=none;fillColor=none;align=center;verticalAlign=middle;whiteSpace=wrap;rounded=0;fontSize=6;" vertex="1" parent="1">
          <mxGeometry x="210" y="-36.25" width="40" height="20" as="geometry" />
        </mxCell>
        <mxCell id="VPjmuC6ASAb90eTFfgxc-33" value="Envia Pedido" style="rounded=1;whiteSpace=wrap;html=1;fontSize=8;" vertex="1" parent="1">
          <mxGeometry x="50" y="70" width="70" height="40" as="geometry" />
        </mxCell>
        <mxCell id="VPjmuC6ASAb90eTFfgxc-34" value="" style="endArrow=classic;html=1;fontSize=6;entryX=1;entryY=0.5;entryDx=0;entryDy=0;exitX=0;exitY=0.5;exitDx=0;exitDy=0;" edge="1" parent="1" source="VPjmuC6ASAb90eTFfgxc-17" target="VPjmuC6ASAb90eTFfgxc-33">
          <mxGeometry width="50" height="50" relative="1" as="geometry">
            <mxPoint x="142" y="90" as="sourcePoint" />
            <mxPoint x="160" y="30" as="targetPoint" />
          </mxGeometry>
        </mxCell>
        <mxCell id="VPjmuC6ASAb90eTFfgxc-35" value="" style="endArrow=classic;html=1;fontSize=6;exitX=0.5;exitY=1;exitDx=0;exitDy=0;" edge="1" parent="1" source="VPjmuC6ASAb90eTFfgxc-33">
          <mxGeometry width="50" height="50" relative="1" as="geometry">
            <mxPoint x="110" y="170" as="sourcePoint" />
            <mxPoint x="85" y="130" as="targetPoint" />
          </mxGeometry>
        </mxCell>
        <mxCell id="VPjmuC6ASAb90eTFfgxc-36" value="Recebe Pedido" style="rounded=1;whiteSpace=wrap;html=1;fontSize=8;align=center;" vertex="1" parent="1">
          <mxGeometry x="50" y="130" width="70" height="40" as="geometry" />
        </mxCell>
        <mxCell id="VPjmuC6ASAb90eTFfgxc-39" value="Verifica dados cadastrais" style="rounded=1;whiteSpace=wrap;html=1;fontSize=8;align=center;" vertex="1" parent="1">
          <mxGeometry x="145" y="130" width="75" height="40" as="geometry" />
        </mxCell>
        <mxCell id="VPjmuC6ASAb90eTFfgxc-40" value="Verifica pagamento" style="rounded=1;whiteSpace=wrap;html=1;fontSize=8;align=center;" vertex="1" parent="1">
          <mxGeometry x="250" y="130" width="75" height="40" as="geometry" />
        </mxCell>
        <mxCell id="VPjmuC6ASAb90eTFfgxc-41" value="" style="endArrow=classic;html=1;fontSize=4;exitX=1;exitY=0.5;exitDx=0;exitDy=0;entryX=0;entryY=0.5;entryDx=0;entryDy=0;" edge="1" parent="1" source="VPjmuC6ASAb90eTFfgxc-36" target="VPjmuC6ASAb90eTFfgxc-39">
          <mxGeometry width="50" height="50" relative="1" as="geometry">
            <mxPoint x="100" y="260" as="sourcePoint" />
            <mxPoint x="140" y="150" as="targetPoint" />
          </mxGeometry>
        </mxCell>
        <mxCell id="VPjmuC6ASAb90eTFfgxc-42" value="" style="endArrow=classic;html=1;fontSize=4;entryX=0;entryY=0.5;entryDx=0;entryDy=0;exitX=1;exitY=0.5;exitDx=0;exitDy=0;" edge="1" parent="1" source="VPjmuC6ASAb90eTFfgxc-39" target="VPjmuC6ASAb90eTFfgxc-40">
          <mxGeometry width="50" height="50" relative="1" as="geometry">
            <mxPoint x="130" y="270" as="sourcePoint" />
            <mxPoint x="180" y="220" as="targetPoint" />
          </mxGeometry>
        </mxCell>
        <mxCell id="VPjmuC6ASAb90eTFfgxc-43" value="Cobra Cliente" style="rounded=1;whiteSpace=wrap;html=1;fontSize=8;align=center;" vertex="1" parent="1">
          <mxGeometry x="350" y="70" width="60" height="40" as="geometry" />
        </mxCell>
        <mxCell id="VPjmuC6ASAb90eTFfgxc-52" value="" style="edgeStyle=orthogonalEdgeStyle;rounded=0;orthogonalLoop=1;jettySize=auto;html=1;fontSize=5;" edge="1" parent="1" source="VPjmuC6ASAb90eTFfgxc-46" target="VPjmuC6ASAb90eTFfgxc-43">
          <mxGeometry relative="1" as="geometry" />
        </mxCell>
        <mxCell id="VPjmuC6ASAb90eTFfgxc-46" value="" style="rhombus;whiteSpace=wrap;html=1;fontSize=5;align=center;" vertex="1" parent="1">
          <mxGeometry x="365" y="135" width="30" height="30" as="geometry" />
        </mxCell>
        <mxCell id="VPjmuC6ASAb90eTFfgxc-48" value="" style="endArrow=classic;html=1;fontSize=5;entryX=0;entryY=0.5;entryDx=0;entryDy=0;" edge="1" parent="1" source="VPjmuC6ASAb90eTFfgxc-40" target="VPjmuC6ASAb90eTFfgxc-46">
          <mxGeometry width="50" height="50" relative="1" as="geometry">
            <mxPoint x="190" y="120" as="sourcePoint" />
            <mxPoint x="240" y="70" as="targetPoint" />
          </mxGeometry>
        </mxCell>
        <mxCell id="VPjmuC6ASAb90eTFfgxc-50" value="" style="endArrow=classic;html=1;fontSize=5;entryX=0.5;entryY=1;entryDx=0;entryDy=0;" edge="1" parent="1" target="VPjmuC6ASAb90eTFfgxc-43">
          <mxGeometry width="50" height="50" relative="1" as="geometry">
            <mxPoint x="380" y="120" as="sourcePoint" />
            <mxPoint x="240" y="50" as="targetPoint" />
          </mxGeometry>
        </mxCell>
        <mxCell id="VPjmuC6ASAb90eTFfgxc-53" value="Não efetuo" style="text;html=1;strokeColor=none;fillColor=none;align=center;verticalAlign=middle;whiteSpace=wrap;rounded=0;fontSize=5;" vertex="1" parent="1">
          <mxGeometry x="385" y="110" width="40" height="20" as="geometry" />
        </mxCell>
        <mxCell id="VPjmuC6ASAb90eTFfgxc-58" value="Efetua pagamento" style="text;html=1;strokeColor=none;fillColor=none;align=center;verticalAlign=middle;whiteSpace=wrap;rounded=0;fontSize=5;" vertex="1" parent="1">
          <mxGeometry x="340" y="165" width="40" height="20" as="geometry" />
        </mxCell>
        <mxCell id="VPjmuC6ASAb90eTFfgxc-59" value="" style="endArrow=classic;html=1;fontSize=5;exitX=1;exitY=0;exitDx=0;exitDy=0;" edge="1" parent="1" source="VPjmuC6ASAb90eTFfgxc-58">
          <mxGeometry width="50" height="50" relative="1" as="geometry">
            <mxPoint x="190" y="230" as="sourcePoint" />
            <mxPoint x="380" y="220" as="targetPoint" />
          </mxGeometry>
        </mxCell>
        <mxCell id="VPjmuC6ASAb90eTFfgxc-60" value="Empresa de vendas de veiculos recebe o recibo" style="rounded=1;whiteSpace=wrap;html=1;fontSize=7;align=center;" vertex="1" parent="1">
          <mxGeometry x="345" y="210" width="70" height="40" as="geometry" />
        </mxCell>
        <mxCell id="VPjmuC6ASAb90eTFfgxc-61" value="Disponibiliza carro" style="rounded=1;whiteSpace=wrap;html=1;fontSize=7;align=center;" vertex="1" parent="1">
          <mxGeometry x="450" y="70" width="70" height="40" as="geometry" />
        </mxCell>
        <mxCell id="VPjmuC6ASAb90eTFfgxc-62" value="" style="endArrow=classic;html=1;fontSize=7;entryX=0.549;entryY=1.083;entryDx=0;entryDy=0;exitX=1;exitY=0.5;exitDx=0;exitDy=0;entryPerimeter=0;" edge="1" parent="1" source="VPjmuC6ASAb90eTFfgxc-60" target="VPjmuC6ASAb90eTFfgxc-61">
          <mxGeometry width="50" height="50" relative="1" as="geometry">
            <mxPoint x="420" y="230" as="sourcePoint" />
            <mxPoint x="240" y="210" as="targetPoint" />
            <Array as="points">
              <mxPoint x="490" y="230" />
            </Array>
          </mxGeometry>
        </mxCell>
        <mxCell id="VPjmuC6ASAb90eTFfgxc-63" value="Empresa de veiculos" style="rounded=0;whiteSpace=wrap;html=1;fontSize=5;fontStyle=1;" vertex="1" parent="1">
          <mxGeometry x="1" y="190" width="30" height="70" as="geometry" />
        </mxCell>
      </root>
    </mxGraphModel>
  </diagram>
</mxfile>
